<mxfile host="app.diagrams.net" modified="2023-06-12T15:41:14.358Z" agent="Mozilla/5.0 (Windows NT 10.0; Win64; x64) AppleWebKit/537.36 (KHTML, like Gecko) Chrome/114.0.0.0 Safari/537.36" version="21.3.8" etag="i66Wwr2ODRsK8TWBHWer" type="github">
  <diagram name="Page-1" id="D_vJw56_fJF1E9agUX0I">
    <mxGraphModel>
      <root>
        <mxCell id="0" />
        <mxCell id="1" parent="0" />
      </root>
    </mxGraphModel>
  </diagram>
</mxfile>
